<?xml version="1.0" encoding="UTF-8" standalone="no"?>
<svg
   xmlns:dc="http://purl.org/dc/elements/1.1/"
   xmlns:cc="http://creativecommons.org/ns#"
   xmlns:rdf="http://www.w3.org/1999/02/22-rdf-syntax-ns#"
   xmlns:svg="http://www.w3.org/2000/svg"
   xmlns="http://www.w3.org/2000/svg"
   xmlns:sodipodi="http://sodipodi.sourceforge.net/DTD/sodipodi-0.dtd"
   xmlns:inkscape="http://www.inkscape.org/namespaces/inkscape"
   width="50.094448mm"
   height="20.075846mm"
   viewBox="0 0 50.094448 20.075846"
   version="1.1"
   id="svg8"
   inkscape:version="1.0.1 (3bc2e813f5, 2020-09-07)"
   sodipodi:docname="signature.svg">
  <defs
     id="defs2" />
  <sodipodi:namedview
     id="base"
     pagecolor="#ffffff"
     bordercolor="#666666"
     borderopacity="1.0"
     inkscape:pageopacity="0.0"
     inkscape:pageshadow="2"
     inkscape:zoom="2.8"
     inkscape:cx="78.637962"
     inkscape:cy="72.660437"
     inkscape:document-units="mm"
     inkscape:current-layer="g14"
     inkscape:document-rotation="0"
     showgrid="false"
     fit-margin-top="0"
     fit-margin-left="0"
     fit-margin-right="0"
     fit-margin-bottom="0"
     inkscape:window-width="1920"
     inkscape:window-height="1001"
     inkscape:window-x="-9"
     inkscape:window-y="-9"
     inkscape:window-maximized="1" />
  <metadata
     id="metadata5">
    <rdf:RDF>
      <cc:Work
         rdf:about="">
        <dc:format>image/svg+xml</dc:format>
        <dc:type
           rdf:resource="http://purl.org/dc/dcmitype/StillImage" />
        <dc:title></dc:title>
      </cc:Work>
    </rdf:RDF>
  </metadata>
  <g
     inkscape:label="Layer 1"
     inkscape:groupmode="layer"
     id="layer1"
     transform="translate(-81.542061,-121.49779)">
    <g
       transform="matrix(0.02103713,0,0,-0.03016426,53.154981,154.46055)"
       fill="#000000"
       stroke="none"
       id="g14">
      <path
         d="m 1985,965 c -43,-15 -95,-65 -95,-91 0,-27 19,-51 70,-89 55,-40 63,-65 28,-89 -23,-16 -73,-21 -102,-10 -24,9 -19,33 9,46 26,12 31,23 15,33 -23,14 -80,-35 -80,-70 0,-73 181,-74 219,-1 22,40 9,68 -54,118 -33,27 -61,55 -63,62 -4,18 44,52 86,61 25,5 32,3 32,-8 0,-8 -7,-17 -15,-21 -17,-6 -20,-32 -5,-41 16,-10 60,41 60,69 0,25 -25,46 -52,46 -7,-1 -31,-7 -53,-15 z"
         id="path10"
         style="fill:#999999" />
      <path
         d="m 2196,965 c -45,-16 -96,-62 -96,-86 0,-36 23,-30 64,15 38,41 48,46 85,46 60,0 81,-14 81,-54 0,-35 -35,-80 -72,-92 -28,-9 -32,0 -17,40 7,20 9,39 5,43 -11,11 -46,-36 -94,-126 -44,-82 -50,-105 -30,-117 15,-10 45,29 59,77 14,45 24,49 33,15 3,-14 18,-38 32,-55 27,-33 60,-39 96,-20 14,8 23,8 31,0 17,-17 79,-13 120,8 20,10 37,15 37,10 0,-5 17,-9 37,-9 h 37 l -47,-30 c -26,-16 -50,-37 -53,-45 -9,-23 15,-45 49,-45 34,0 97,59 97,91 0,11 14,28 33,39 41,25 45,25 49,-2 4,-32 52,-36 89,-9 28,21 28,21 34,1 9,-29 49,-25 87,9 l 32,29 27,-29 c 23,-25 35,-29 79,-29 88,0 147,43 138,101 -2,14 -26,42 -63,71 -33,27 -61,55 -63,62 -4,18 44,52 86,61 25,5 32,3 32,-8 0,-8 -7,-17 -15,-21 -17,-6 -20,-32 -5,-41 16,-10 60,42 60,70 0,59 -104,53 -167,-10 -51,-51 -43,-81 37,-140 55,-40 63,-65 28,-89 -23,-16 -73,-21 -102,-10 -24,9 -19,33 9,46 26,12 31,23 15,33 -11,7 -70,-25 -70,-38 0,-4 -5,-5 -11,-1 -6,3 -23,-6 -39,-21 -17,-16 -35,-25 -44,-22 -14,5 -14,12 0,58 8,28 14,52 12,54 -2,1 -26,6 -55,10 l -51,7 -60,-55 c -77,-71 -94,-80 -134,-69 l -31,8 51,38 c 74,54 70,68 -20,64 -46,-2 -73,-7 -76,-15 -2,-9 11,-13 50,-13 h 53 l -38,-27 c -21,-15 -46,-28 -55,-29 -9,-1 -40,-12 -68,-24 -32,-14 -59,-20 -70,-16 -16,6 -11,12 27,31 56,29 72,47 67,77 -2,15 -11,24 -26,26 -53,8 -112,-39 -127,-100 -10,-40 -53,-47 -82,-13 -33,37 -29,59 11,73 81,30 122,124 74,170 -46,42 -96,51 -162,27 z m 274,-198 c 0,-13 -58,-52 -66,-45 -2,3 5,17 17,31 22,28 49,36 49,14 z m 374,-3 c 22,-8 20,-18 -10,-53 -32,-39 -64,-41 -64,-6 0,24 31,65 49,65 5,0 16,-3 25,-6 z M 2606,603 c -11,-34 -66,-53 -66,-23 0,9 62,51 68,45 2,-2 1,-12 -2,-22 z"
         id="path12"
         style="fill:#999999" />
    </g>
  </g>
</svg>
